<svg width="36" height="36" viewBox="0 0 36 36" fill="none" xmlns="http://www.w3.org/2000/svg">
<path d="M36 27C36 28.0609 35.5786 29.0783 34.8284 29.8284C34.0783 30.5786 33.0609 31 32 31H4C2.93913 31 1.92172 30.5786 1.17157 29.8284C0.421427 29.0783 0 28.0609 0 27V9C0 7.93913 0.421427 6.92172 1.17157 6.17157C1.92172 5.42143 2.93913 5 4 5H32C33.0609 5 34.0783 5.42143 34.8284 6.17157C35.5786 6.92172 36 7.93913 36 9V27Z" fill="#009B3A"/>
<path d="M32.728 18L18 29.124L3.272 18L18 6.875L32.728 18Z" fill="#FEDF01"/>
<path d="M17.976 24.3821C21.5427 24.3821 24.434 21.4907 24.434 17.9241C24.434 14.3574 21.5427 11.4661 17.976 11.4661C14.4093 11.4661 11.518 14.3574 11.518 17.9241C11.518 21.4907 14.4093 24.3821 17.976 24.3821Z" fill="#002776"/>
<path d="M12.277 14.8871C11.9416 15.5191 11.7144 16.2029 11.605 16.9101C15.6 16.6201 21.022 18.8011 23.349 21.5051C23.751 20.9011 24.049 20.2251 24.232 19.5011C21.36 16.6931 16.315 14.8711 12.277 14.8871Z" fill="#CBE9D4"/>
<path d="M12 18.2329H13V19.2329H12V18.2329ZM13 20.2329H14V21.2329H13V20.2329Z" fill="#88C9F9"/>
<path d="M15 18.2329H16V19.2329H15V18.2329ZM17 19.2329H18V20.2329H17V19.2329ZM21 21.2329H22V22.2329H21V21.2329ZM18 22.2329H19V23.2329H18V22.2329ZM21 16.2329H22V17.2329H21V16.2329Z" fill="#55ACEE"/>
<path d="M19 20.2329H20V21.2329H19V20.2329Z" fill="#3B88C3"/>
</svg>
