<svg width="36" height="26" viewBox="0 0 36 26" fill="none" xmlns="http://www.w3.org/2000/svg">
<g clip-path="url(#clip0_31_879)">
<mask id="mask0_31_879" style="mask-type:alpha" maskUnits="userSpaceOnUse" x="0" y="0" width="36" height="26">
<path d="M0.666626 0H35.3333V26H0.666626V0Z" fill="white"/>
</mask>
<g mask="url(#mask0_31_879)">
<path fill-rule="evenodd" clip-rule="evenodd" d="M0.666626 0H35.3333V26H0.666626V0Z" fill="#F7FCFF"/>
<path fill-rule="evenodd" clip-rule="evenodd" d="M0.666626 15.8893V18.0559H35.3333V15.8893H0.666626ZM0.666626 19.8608V22.0274H35.3333V19.8608H0.666626ZM0.666626 7.94408V10.1108H35.3333V7.94408H0.666626ZM0.666626 23.8333V26H35.3333V23.8333H0.666626ZM0.666626 11.9167V14.0833H35.3333V11.9167H0.666626ZM0.666626 0V2.16667H35.3333V0H0.666626ZM0.666626 3.97258V6.13925H35.3333V3.97258H0.666626Z" fill="#E31D1C"/>
<path d="M0.666626 0H22.3333V14.0833H0.666626V0Z" fill="#2E42A5"/>
<path fill-rule="evenodd" clip-rule="evenodd" d="M2.53217 3.18391L1.74567 3.73532L2.01108 2.75382L1.31233 2.13199H2.22558L2.53108 1.33032L2.88967 2.13199H3.6675L3.0565 2.75382L3.29267 3.73532L2.53217 3.18282V3.18391ZM6.8655 3.18391L6.079 3.73532L6.34442 2.75382L5.64675 2.13199H6.55892L6.86442 1.33032L7.223 2.13199H8.00083L7.38983 2.75382L7.626 3.73532L6.8655 3.18282V3.18391ZM10.4123 3.73532L11.1988 3.18282L11.9593 3.73532L11.7232 2.75382L12.3342 2.13199H11.5563L11.1977 1.33032L10.8923 2.13199H9.98008L10.6777 2.75382L10.4123 3.73532ZM15.5322 3.18282L14.7457 3.73532L15.0111 2.75382L14.3134 2.13199H15.2256L15.5311 1.33032L15.8897 2.13199H16.6675L16.0565 2.75382L16.2927 3.73532L15.5322 3.18282ZM1.74567 8.06974L2.53217 7.51724L3.29267 8.06974L3.0565 7.08824L3.6675 6.46641H2.88967L2.53108 5.66474L2.22558 6.46641H1.31233L2.01108 7.08824L1.74567 8.06974ZM6.8655 7.51724L6.079 8.06974L6.34442 7.08824L5.64675 6.46641H6.55892L6.86442 5.66474L7.223 6.46641H8.00083L7.38983 7.08824L7.626 8.06974L6.8655 7.51724ZM10.4123 8.06974L11.1988 7.51724L11.9593 8.06974L11.7232 7.08824L12.3342 6.46641H11.5563L11.1977 5.66474L10.8923 6.46641H9.98008L10.6777 7.08824L10.4123 8.06974ZM15.5322 7.51724L14.7457 8.06974L15.0111 7.08824L14.3134 6.46641H15.2256L15.5311 5.66474L15.8897 6.46641H16.6675L16.0565 7.08824L16.2927 8.06974L15.5322 7.51724ZM1.74567 12.4031L2.53217 11.8506L3.29267 12.4031L3.0565 11.4216L3.6675 10.7997H2.88967L2.53108 9.99807L2.22558 10.7997H1.31233L2.01108 11.4216L1.74567 12.402V12.4031ZM6.8655 11.8506L6.079 12.4031L6.34442 11.4216L5.64675 10.7997H6.55892L6.86442 9.99807L7.223 10.7997H8.00083L7.38983 11.4216L7.626 12.402L6.8655 11.8517V11.8506ZM10.4123 12.4031L11.1988 11.8506L11.9593 12.4031L11.7232 11.4216L12.3342 10.7997H11.5563L11.1977 9.99807L10.8923 10.7997H9.98008L10.6777 11.4216L10.4123 12.402V12.4031ZM15.5322 11.8506L14.7457 12.4031L15.0111 11.4216L14.3134 10.7997H15.2256L15.5311 9.99807L15.8897 10.7997H16.6675L16.0565 11.4216L16.2927 12.402L15.5322 11.8517V11.8506ZM19.079 3.73641L19.8655 3.18391L20.626 3.73641L20.3898 2.75491L21.0008 2.13307H20.223L19.8644 1.33141L19.5589 2.13307H18.6457L19.3444 2.75491L19.079 3.73641ZM19.8655 7.51724L19.079 8.06974L19.3444 7.08824L18.6457 6.46641H19.5589L19.8644 5.66474L20.223 6.46641H21.0008L20.3898 7.08824L20.626 8.06974L19.8655 7.51724ZM19.079 12.4031L19.8655 11.8506L20.626 12.4031L20.3898 11.4216L21.0008 10.7997H20.223L19.8644 9.99807L19.5589 10.7997H18.6457L19.3444 11.4216L19.079 12.402V12.4031ZM4.69883 5.34949L3.91233 5.90199L4.17775 4.92049L3.479 4.29866H4.39225L4.69775 3.49699L5.05633 4.29866H5.83417L5.22317 4.92049L5.45933 5.90199L4.69883 5.34949ZM8.24567 5.90199L9.03217 5.34949L9.79267 5.90199L9.5565 4.92049L10.1675 4.29866H9.38967L9.03108 3.49699L8.72558 4.29866H7.81233L8.51108 4.92049L8.24567 5.90199ZM13.3655 5.34949L12.579 5.90199L12.8444 4.92049L12.1467 4.29866H13.0589L13.3644 3.49699L13.723 4.29866H14.5008L13.8898 4.92049L14.126 5.90199L13.3655 5.34949ZM3.91233 10.2353L4.69883 9.68282L5.45933 10.2353L5.22317 9.25382L5.83417 8.63199H5.05633L4.69775 7.83032L4.39225 8.63199H3.479L4.17775 9.25382L3.91233 10.2353ZM9.03217 9.68282L8.24567 10.2353L8.51108 9.25382L7.81342 8.63199H8.72558L9.03108 7.83032L9.38967 8.63199H10.1675L9.5565 9.25382L9.79267 10.2353L9.03217 9.68282ZM12.579 10.2353L13.3655 9.68282L14.126 10.2353L13.8898 9.25382L14.5008 8.63199H13.723L13.3644 7.83032L13.0589 8.63199H12.1467L12.8444 9.25382L12.579 10.2353ZM17.6988 5.34949L16.9123 5.90199L17.1777 4.92049L16.4801 4.29866H17.3923L17.6978 3.49699L18.0563 4.29866H18.8342L18.2232 4.92049L18.4593 5.90199L17.6988 5.34949ZM16.9123 10.2353L17.6988 9.68282L18.4593 10.2353L18.2232 9.25382L18.8342 8.63199H18.0563L17.6978 7.83032L17.3923 8.63199H16.4801L17.1777 9.25382L16.9123 10.2353Z" fill="#F7FCFF"/>
</g>
</g>
<defs>
<clipPath id="clip0_31_879">
<rect x="0.666626" width="34.6667" height="26" rx="5" fill="white"/>
</clipPath>
</defs>
</svg>
