<svg width="300" height="541" viewBox="0 0 300 541" fill="none" xmlns="http://www.w3.org/2000/svg">
<rect width="300" height="541" fill="#ECECEC"/>
<rect width="300" height="541" fill="#ECECEC"/>
<path d="M82.8973 374.207C84.2602 374.207 85.4343 374.051 86.4196 373.739C87.4048 373.427 88.2095 372.992 88.8335 372.433C89.4739 371.859 89.9419 371.185 90.2375 370.413C90.5331 369.625 90.6808 368.763 90.6808 367.827C90.6808 366.004 90.0322 364.568 88.7349 363.517C87.4377 362.449 85.4918 361.916 82.8973 361.916H75.2615V374.207H82.8973ZM75.2615 346.472V358.516H81.5672C82.9137 358.516 84.0796 358.369 85.0648 358.073C86.0665 357.777 86.8876 357.367 87.528 356.841C88.1848 356.316 88.6693 355.684 88.9813 354.945C89.2933 354.189 89.4493 353.368 89.4493 352.482C89.4493 350.396 88.8253 348.877 87.5773 347.925C86.3293 346.956 84.3916 346.472 81.7642 346.472H75.2615ZM81.7642 342.703C83.9318 342.703 85.7956 342.916 87.3556 343.343C88.932 343.77 90.2211 344.378 91.2227 345.166C92.2408 345.954 92.988 346.923 93.4642 348.073C93.9404 349.206 94.1785 350.487 94.1785 351.915C94.1785 352.785 94.039 353.623 93.7598 354.428C93.4971 355.216 93.0947 355.955 92.5528 356.644C92.011 357.334 91.3213 357.958 90.4838 358.516C89.6627 359.058 88.6939 359.502 87.5773 359.847C90.1718 360.339 92.1177 361.267 93.4149 362.63C94.7286 363.976 95.3855 365.75 95.3855 367.95C95.3855 369.445 95.1063 370.808 94.548 372.039C94.0061 373.271 93.2015 374.33 92.1341 375.217C91.0832 376.103 89.7859 376.793 88.2423 377.286C86.6987 377.762 84.9417 378 82.9712 378H70.5076V342.703H81.7642ZM105.372 341.718V378H100.988V341.718H105.372ZM129.182 362.802C129.182 361.784 129.035 360.856 128.739 360.019C128.46 359.165 128.041 358.434 127.483 357.827C126.941 357.203 126.276 356.727 125.488 356.398C124.699 356.053 123.804 355.881 122.803 355.881C120.701 355.881 119.034 356.497 117.803 357.728C116.587 358.943 115.832 360.635 115.536 362.802H129.182ZM132.729 374.502C132.187 375.159 131.539 375.734 130.783 376.227C130.028 376.703 129.215 377.097 128.345 377.409C127.491 377.721 126.604 377.951 125.685 378.099C124.765 378.263 123.854 378.345 122.951 378.345C121.226 378.345 119.633 378.057 118.172 377.483C116.727 376.892 115.471 376.038 114.403 374.921C113.352 373.788 112.531 372.392 111.94 370.734C111.349 369.075 111.053 367.17 111.053 365.019C111.053 363.279 111.316 361.653 111.842 360.142C112.384 358.631 113.155 357.326 114.157 356.226C115.159 355.109 116.382 354.239 117.827 353.615C119.272 352.974 120.898 352.654 122.704 352.654C124.199 352.654 125.578 352.909 126.842 353.418C128.123 353.91 129.223 354.633 130.143 355.585C131.079 356.521 131.81 357.687 132.335 359.083C132.861 360.462 133.123 362.039 133.123 363.812C133.123 364.502 133.049 364.962 132.902 365.192C132.754 365.421 132.475 365.536 132.064 365.536H115.389C115.438 367.113 115.651 368.484 116.029 369.65C116.423 370.816 116.965 371.793 117.655 372.581C118.344 373.353 119.165 373.936 120.118 374.33C121.07 374.708 122.138 374.896 123.32 374.896C124.42 374.896 125.364 374.773 126.153 374.527C126.957 374.264 127.647 373.985 128.222 373.689C128.796 373.394 129.273 373.123 129.65 372.877C130.044 372.614 130.381 372.483 130.66 372.483C131.021 372.483 131.301 372.622 131.498 372.901L132.729 374.502ZM142.647 356.669C143.189 356.061 143.764 355.511 144.371 355.019C144.979 354.526 145.619 354.107 146.292 353.763C146.982 353.401 147.705 353.13 148.46 352.95C149.232 352.753 150.061 352.654 150.948 352.654C152.311 352.654 153.509 352.884 154.544 353.344C155.595 353.787 156.465 354.428 157.155 355.265C157.861 356.086 158.395 357.08 158.756 358.245C159.117 359.411 159.298 360.7 159.298 362.113V378H154.889V362.113C154.889 360.224 154.454 358.763 153.583 357.728C152.729 356.677 151.424 356.152 149.667 356.152C148.37 356.152 147.155 356.464 146.021 357.088C144.905 357.712 143.87 358.557 142.918 359.625V378H138.509V353.048H141.144C141.768 353.048 142.154 353.352 142.302 353.96L142.647 356.669ZM182.236 358.984C181.415 357.884 180.528 357.121 179.575 356.694C178.623 356.25 177.556 356.029 176.373 356.029C174.058 356.029 172.276 356.858 171.028 358.516C169.78 360.175 169.156 362.54 169.156 365.61C169.156 367.236 169.296 368.632 169.575 369.798C169.854 370.947 170.265 371.9 170.807 372.655C171.348 373.394 172.014 373.936 172.802 374.281C173.59 374.625 174.485 374.798 175.487 374.798C176.932 374.798 178.188 374.469 179.255 373.813C180.339 373.156 181.332 372.228 182.236 371.029V358.984ZM186.62 341.718V378H184.009C183.385 378 182.991 377.696 182.827 377.089L182.433 374.059C181.365 375.34 180.15 376.374 178.787 377.163C177.424 377.951 175.848 378.345 174.058 378.345C172.629 378.345 171.332 378.074 170.166 377.532C169 376.974 168.007 376.161 167.186 375.093C166.365 374.026 165.732 372.696 165.289 371.103C164.846 369.51 164.624 367.679 164.624 365.61C164.624 363.771 164.87 362.063 165.363 360.487C165.856 358.894 166.562 357.515 167.481 356.349C168.401 355.183 169.526 354.272 170.856 353.615C172.202 352.941 173.713 352.605 175.388 352.605C176.915 352.605 178.221 352.868 179.304 353.393C180.405 353.902 181.382 354.616 182.236 355.536V341.718H186.62ZM210.245 362.802C210.245 361.784 210.097 360.856 209.802 360.019C209.523 359.165 209.104 358.434 208.546 357.827C208.004 357.203 207.339 356.727 206.55 356.398C205.762 356.053 204.867 355.881 203.866 355.881C201.764 355.881 200.097 356.497 198.865 357.728C197.65 358.943 196.895 360.635 196.599 362.802H210.245ZM213.792 374.502C213.25 375.159 212.602 375.734 211.846 376.227C211.091 376.703 210.278 377.097 209.408 377.409C208.554 377.721 207.667 377.951 206.748 378.099C205.828 378.263 204.917 378.345 204.013 378.345C202.289 378.345 200.696 378.057 199.235 377.483C197.79 376.892 196.534 376.038 195.466 374.921C194.415 373.788 193.594 372.392 193.003 370.734C192.412 369.075 192.116 367.17 192.116 365.019C192.116 363.279 192.379 361.653 192.905 360.142C193.446 358.631 194.218 357.326 195.22 356.226C196.222 355.109 197.445 354.239 198.89 353.615C200.335 352.974 201.961 352.654 203.767 352.654C205.261 352.654 206.641 352.909 207.905 353.418C209.186 353.91 210.286 354.633 211.206 355.585C212.142 356.521 212.873 357.687 213.398 359.083C213.924 360.462 214.186 362.039 214.186 363.812C214.186 364.502 214.112 364.962 213.965 365.192C213.817 365.421 213.538 365.536 213.127 365.536H196.452C196.501 367.113 196.714 368.484 197.092 369.65C197.486 370.816 198.028 371.793 198.718 372.581C199.407 373.353 200.228 373.936 201.181 374.33C202.133 374.708 203.201 374.896 204.383 374.896C205.483 374.896 206.427 374.773 207.216 374.527C208.02 374.264 208.71 373.985 209.285 373.689C209.859 373.394 210.336 373.123 210.713 372.877C211.107 372.614 211.444 372.483 211.723 372.483C212.084 372.483 212.364 372.622 212.561 372.901L213.792 374.502ZM223.734 358.048C224.523 356.341 225.492 355.011 226.641 354.058C227.79 353.089 229.194 352.605 230.853 352.605C231.378 352.605 231.879 352.662 232.356 352.777C232.848 352.892 233.283 353.073 233.661 353.319L233.341 356.595C233.242 357.006 232.996 357.211 232.602 357.211C232.372 357.211 232.035 357.162 231.592 357.063C231.149 356.965 230.648 356.915 230.089 356.915C229.301 356.915 228.595 357.03 227.971 357.26C227.364 357.49 226.813 357.835 226.321 358.295C225.845 358.738 225.409 359.296 225.015 359.97C224.638 360.627 224.293 361.382 223.981 362.236V378H219.572V353.048H222.084C222.56 353.048 222.889 353.139 223.069 353.319C223.25 353.5 223.373 353.812 223.439 354.255L223.734 358.048Z" fill="black"/>
<path d="M131.164 210.331C131.805 198.895 137.405 188.821 145.853 181.678C154.138 174.664 165.289 170.376 177.457 170.376C189.612 170.376 200.763 174.664 209.054 181.678C217.496 188.82 223.096 198.895 223.744 210.319C224.384 222.069 219.661 232.985 211.376 241.076C202.928 249.306 190.912 254.47 177.457 254.47C164.001 254.47 151.961 249.306 143.519 241.076C135.228 232.984 130.517 222.068 131.164 210.331V210.331Z" fill="white"/>
<path d="M153.71 211.352C154.038 205.484 156.912 200.314 161.247 196.65C165.498 193.051 171.219 190.851 177.463 190.851C183.699 190.851 189.421 193.051 193.675 196.65C198.007 200.314 200.88 205.484 201.212 211.346C201.541 217.375 199.119 222.976 194.867 227.127C190.532 231.35 184.367 234 177.463 234C170.559 234 164.381 231.35 160.049 227.127C155.795 222.976 153.378 217.375 153.71 211.352V211.352Z" fill="#265787"/>
<path d="M115.999 223.406C116.041 225.706 116.774 230.178 117.875 233.67C120.189 241.061 124.113 247.9 129.573 253.926C135.177 260.12 142.077 265.096 150.047 268.628C158.424 272.338 167.501 274.229 176.929 274.213C186.342 274.2 195.419 272.273 203.796 268.535C211.766 264.968 218.66 259.971 224.254 253.774C229.711 247.722 233.629 240.872 235.949 233.481C237.115 229.746 237.852 225.955 238.148 222.152C238.437 218.4 238.315 214.627 237.784 210.902C236.746 203.594 234.217 196.738 230.324 190.487C226.763 184.744 222.174 179.716 216.716 175.483L216.729 175.474L161.656 133.187C161.605 133.149 161.565 133.109 161.512 133.075C157.899 130.301 151.822 130.311 147.848 133.09C143.831 135.901 143.371 140.551 146.946 143.482L146.931 143.498L169.902 162.178L99.8893 162.252H99.7956C94.0087 162.259 88.4463 166.055 87.3444 170.853C86.2129 175.742 90.1439 179.797 96.1608 179.819L96.1512 179.84L131.638 179.771L68.3137 228.378C68.2331 228.437 68.1456 228.499 68.0713 228.559C62.0977 233.133 60.1667 240.739 63.9289 245.552C67.7476 250.447 75.867 250.456 81.9025 245.581L116.463 217.296C116.463 217.296 115.959 221.114 115.999 223.406ZM204.807 236.192C197.686 243.447 187.716 247.56 176.93 247.583C166.126 247.601 156.157 243.524 149.036 236.282C145.556 232.753 143.001 228.692 141.424 224.366C139.874 220.109 139.277 215.564 139.677 211.051C140.053 206.601 141.378 202.357 143.492 198.516C145.569 194.741 148.43 191.33 151.963 188.444C158.884 182.804 167.697 179.75 176.913 179.737C186.14 179.725 194.946 182.751 201.875 188.373C205.401 191.246 208.259 194.645 210.336 198.414C212.478 202.275 213.783 206.544 214.167 210.942C214.56 215.452 213.961 219.994 212.413 224.248C210.833 228.586 208.286 232.647 204.807 236.192V236.192Z" fill="#EA7600"/>
</svg>
