<svg width="300" height="541" viewBox="0 0 300 541" fill="none" xmlns="http://www.w3.org/2000/svg">
<rect width="300" height="541" fill="#ECECEC"/>
<rect width="300" height="541" fill="#ECECEC"/>
<path d="M175.252 362.425L126.99 330.462L158.25 194.032L288.145 236.238L233.237 364.962L175.252 362.425V362.425Z" fill="#264DE4"/>
<path d="M225.849 353.228L272.77 243.228L219.675 225.976L178.994 351.179L225.849 353.228V353.228Z" fill="#2965F1"/>
<path d="M165.85 262.854L162.023 279.589L198.413 291.413L203.697 275.152L165.85 262.854ZM173.615 228.989L169.81 245.731L209.108 258.5L214.391 242.238L173.615 228.989V228.989ZM189.975 317.385L189.897 317.381L173.376 306.606L176.432 293.261L160.108 287.957L154.09 314.23L184.396 334.3L184.477 334.304L189.975 317.385Z" fill="#EBEBEB"/>
<path d="M200.528 167.933L220.223 174.332L217.546 182.568L206.088 178.845L203.412 187.082L214.871 190.805L212.195 199.041L192.499 192.641L200.528 167.933ZM224.162 175.612L243.857 182.011L241.53 189.173L230.071 185.45L229.606 186.882L241.065 190.606L235.713 207.078L216.018 200.679L218.461 193.158L229.92 196.881L230.386 195.449L218.926 191.726L224.162 175.612L224.162 175.612ZM247.797 183.291L267.492 189.691L265.165 196.853L253.706 193.13L253.241 194.562L264.7 198.285L259.348 214.758L239.652 208.359L242.096 200.837L253.555 204.561L254.02 203.128L242.562 199.405L247.797 183.291L247.797 183.291Z" fill="black"/>
<path d="M241.441 287.415L255.07 255.455L214.335 242.22L209.052 258.481L231.966 265.927L225.075 282.098L203.641 275.133L198.357 291.395L218.382 297.901L209.641 318.378L189.914 317.38L184.417 334.298L220.756 335.891L221.893 333.223L239.625 291.653L241.441 287.415V287.415Z" fill="white"/>
<path d="M141.245 193.995L172.407 330.064L124.127 362.013L66.4415 364.517L11.6779 236.094L141.245 193.995Z" fill="#E44D26"/>
<path d="M120.553 350.744L159.566 324.927L132.936 208.65L79.9753 225.858L120.553 350.744Z" fill="#F16529"/>
<path d="M67.5697 265.755L90.5161 258.299L85.2458 242.078L44.5725 255.294L46.3745 259.519L64.8851 302.923L101.183 291.129L95.913 274.909L74.4491 281.883L67.5697 265.755V265.755ZM84.528 305.508L68.2451 310.798L78.7926 335.529L115.016 333.956L115.084 333.911L109.601 317.035L109.536 317.077L89.8862 318.069L84.528 305.508Z" fill="#EBEBEB"/>
<path d="M12.0547 196.236L20.2977 193.558L22.9439 201.702L30.4845 199.251L27.8383 191.107L36.0819 188.429L44.0951 213.091L35.852 215.769L33.1688 207.511L25.6281 209.961L28.3114 218.219L20.0684 220.898L12.0552 196.236L12.0547 196.236ZM49.5786 193.086L42.3229 195.443L39.6655 187.265L62.4261 179.869L65.0834 188.048L57.8232 190.407L63.179 206.89L54.936 209.569L49.5801 193.085L49.5796 193.085L49.5786 193.086ZM66.0382 178.696L74.6332 175.903L82.7359 182.851L85.2023 172.469L93.8009 169.675L101.814 194.337L93.6046 197.004L89.6328 184.781L86.8108 195.392L86.6686 195.438L78.1449 188.513L82.1166 200.737L74.0514 203.358L66.0382 178.696ZM97.9031 168.342L106.149 165.663L111.513 182.173L123.105 178.407L125.754 186.558L105.916 193.004L97.9026 168.342L97.9031 168.342Z" fill="black"/>
<path d="M101.128 291.148L121.101 284.658L126.053 306.307L109.549 317.068L115.032 333.943L145.291 313.923L144.644 311.103L134.581 267.161L133.561 262.677L95.8572 274.927L101.128 291.148ZM90.4474 258.278L90.4603 258.317L129.64 245.587L128.781 241.836L126.848 233.372L125.822 228.895L85.19 242.097L90.4476 258.278L90.4474 258.278Z" fill="white"/>
</svg>
