<svg width="300" height="541" viewBox="0 0 300 541" fill="none" xmlns="http://www.w3.org/2000/svg">
<rect width="300" height="541" fill="#ECECEC"/>
<path d="M104.179 361.029V374.576C102.405 375.857 100.509 376.818 98.4888 377.458C96.4855 378.082 94.2851 378.394 91.8876 378.394C89.0467 378.394 86.4851 377.959 84.2025 377.089C81.92 376.202 79.9659 374.97 78.3402 373.394C76.7309 371.801 75.4912 369.896 74.6208 367.679C73.7505 365.463 73.3154 363.024 73.3154 360.364C73.3154 357.671 73.7341 355.216 74.5716 352.999C75.4255 350.782 76.6324 348.885 78.1924 347.309C79.7524 345.716 81.6491 344.485 83.8823 343.614C86.1156 342.744 88.6116 342.309 91.3703 342.309C92.7661 342.309 94.0634 342.416 95.2621 342.629C96.4608 342.826 97.5693 343.122 98.5874 343.516C99.6055 343.893 100.55 344.361 101.42 344.92C102.29 345.462 103.103 346.077 103.859 346.767L102.504 348.935C102.29 349.263 102.011 349.477 101.666 349.575C101.338 349.657 100.968 349.575 100.558 349.329C100.164 349.099 99.7122 348.82 99.2032 348.491C98.6941 348.163 98.0701 347.851 97.3312 347.555C96.6086 347.243 95.7465 346.981 94.7448 346.767C93.7596 346.554 92.5855 346.447 91.2225 346.447C89.2356 346.447 87.4375 346.775 85.8282 347.432C84.2189 348.073 82.8478 349 81.7147 350.216C80.5817 351.414 79.7114 352.876 79.1038 354.6C78.4962 356.308 78.1924 358.229 78.1924 360.364C78.1924 362.581 78.5044 364.568 79.1284 366.325C79.7688 368.065 80.672 369.551 81.8379 370.783C83.0202 371.998 84.4488 372.926 86.1238 373.566C87.7987 374.207 89.6789 374.527 91.7644 374.527C93.4065 374.527 94.8598 374.346 96.1242 373.985C97.4051 373.607 98.6531 373.09 99.8682 372.433V364.674H94.3754C94.0634 364.674 93.8088 364.584 93.6118 364.403C93.4312 364.223 93.3408 364.001 93.3408 363.738V361.029H104.179ZM114.897 353.048V378H110.512V353.048H114.897ZM115.833 345.215C115.833 345.642 115.742 346.045 115.562 346.422C115.397 346.784 115.168 347.112 114.872 347.408C114.593 347.687 114.256 347.908 113.862 348.073C113.484 348.237 113.082 348.319 112.655 348.319C112.228 348.319 111.826 348.237 111.448 348.073C111.087 347.908 110.767 347.687 110.488 347.408C110.208 347.112 109.987 346.784 109.822 346.422C109.658 346.045 109.576 345.642 109.576 345.215C109.576 344.788 109.658 344.386 109.822 344.008C109.987 343.614 110.208 343.278 110.488 342.999C110.767 342.703 111.087 342.473 111.448 342.309C111.826 342.145 112.228 342.063 112.655 342.063C113.082 342.063 113.484 342.145 113.862 342.309C114.256 342.473 114.593 342.703 114.872 342.999C115.168 343.278 115.397 343.614 115.562 344.008C115.742 344.386 115.833 344.788 115.833 345.215ZM129.761 378.394C127.79 378.394 126.271 377.844 125.204 376.744C124.153 375.644 123.628 374.059 123.628 371.99V356.718H120.623C120.36 356.718 120.138 356.644 119.958 356.497C119.777 356.332 119.687 356.086 119.687 355.758V354.009L123.775 353.492L124.785 345.782C124.835 345.536 124.941 345.339 125.106 345.191C125.286 345.027 125.516 344.944 125.795 344.944H128.012V353.541H135.229V356.718H128.012V371.694C128.012 372.745 128.267 373.525 128.776 374.034C129.285 374.543 129.942 374.798 130.746 374.798C131.206 374.798 131.6 374.74 131.929 374.625C132.273 374.494 132.569 374.355 132.815 374.207C133.062 374.059 133.267 373.928 133.431 373.813C133.612 373.681 133.768 373.616 133.899 373.616C134.129 373.616 134.334 373.755 134.515 374.034L135.796 376.128C135.04 376.834 134.129 377.392 133.062 377.803C131.994 378.197 130.894 378.394 129.761 378.394ZM169.388 342.703V378H164.61V361.94H145.569V378H140.791V342.703H145.569V358.443H164.61V342.703H169.388ZM197.462 353.048V378H194.851C194.227 378 193.833 377.696 193.669 377.089L193.324 374.404C192.24 375.603 191.025 376.571 189.679 377.31C188.332 378.033 186.789 378.394 185.048 378.394C183.685 378.394 182.478 378.172 181.427 377.729C180.393 377.269 179.522 376.629 178.816 375.808C178.11 374.987 177.576 373.993 177.215 372.827C176.87 371.661 176.698 370.372 176.698 368.96V353.048H181.082V368.96C181.082 370.849 181.509 372.31 182.363 373.345C183.234 374.379 184.555 374.896 186.329 374.896C187.626 374.896 188.833 374.593 189.95 373.985C191.083 373.361 192.126 372.507 193.078 371.423V353.048H197.462ZM208.823 371.99C209.628 373.074 210.506 373.837 211.459 374.281C212.428 374.724 213.487 374.946 214.636 374.946C216.985 374.946 218.783 374.116 220.031 372.458C221.279 370.799 221.903 368.328 221.903 365.044C221.903 361.989 221.344 359.748 220.228 358.319C219.128 356.874 217.551 356.152 215.498 356.152C214.07 356.152 212.822 356.48 211.754 357.137C210.704 357.794 209.726 358.722 208.823 359.92V371.99ZM208.823 356.644C209.874 355.429 211.057 354.46 212.37 353.738C213.7 353.015 215.228 352.654 216.952 352.654C218.413 352.654 219.727 352.933 220.893 353.492C222.075 354.05 223.077 354.863 223.898 355.93C224.719 356.981 225.343 358.262 225.77 359.773C226.213 361.283 226.435 362.983 226.435 364.871C226.435 366.891 226.189 368.73 225.696 370.389C225.203 372.047 224.489 373.468 223.553 374.65C222.633 375.816 221.509 376.727 220.178 377.384C218.848 378.025 217.354 378.345 215.696 378.345C214.053 378.345 212.666 378.041 211.533 377.433C210.416 376.809 209.439 375.931 208.602 374.798L208.38 377.064C208.249 377.688 207.871 378 207.247 378H204.414V341.718H208.823V356.644Z" fill="black"/>
<path d="M150.5 131C105.471 131 69 167.471 69 212.5C69 248.564 92.3294 279.024 124.726 289.823C128.801 290.536 130.329 288.091 130.329 285.952C130.329 284.016 130.227 277.598 130.227 270.773C109.75 274.542 104.452 265.781 102.822 261.196C101.906 258.853 97.9325 251.62 94.4688 249.684C91.6162 248.156 87.5412 244.387 94.3669 244.285C100.785 244.183 105.369 250.194 106.898 252.639C114.233 264.966 125.948 261.502 130.634 259.363C131.348 254.065 133.487 250.499 135.83 248.462C117.696 246.424 98.7475 239.395 98.7475 208.221C98.7475 199.358 101.906 192.023 107.101 186.318C106.286 184.281 103.434 175.927 107.916 164.721C107.916 164.721 114.742 162.581 130.329 173.074C136.849 171.241 143.776 170.324 150.704 170.324C157.631 170.324 164.559 171.241 171.079 173.074C186.666 162.479 193.491 164.721 193.491 164.721C197.974 175.927 195.121 184.281 194.306 186.318C199.502 192.023 202.66 199.256 202.66 208.221C202.66 239.497 183.609 246.424 165.476 248.462C168.43 251.009 170.977 255.899 170.977 263.539C170.977 274.44 170.875 283.201 170.875 285.952C170.875 288.091 172.403 290.638 176.478 289.823C192.658 284.363 206.718 273.965 216.678 260.094C226.638 246.222 231.997 229.577 232 212.5C232 167.471 195.529 131 150.5 131Z" fill="black"/>
</svg>
