<svg width="300" height="541" viewBox="0 0 300 541" fill="none" xmlns="http://www.w3.org/2000/svg">
<rect width="300" height="541" fill="#ECECEC"/>
<rect width="300" height="541" fill="#ECECEC"/>
<g clip-path="url(#clip0_144_168)">
<path d="M148.925 355.612C147.981 355.612 147.099 355.36 146.28 354.919L137.904 349.944C136.644 349.251 137.274 348.999 137.652 348.873C139.353 348.306 139.668 348.18 141.431 347.173C141.62 347.047 141.872 347.11 142.061 347.236L148.485 351.077C148.737 351.203 149.052 351.203 149.24 351.077L174.369 336.529C174.621 336.403 174.747 336.151 174.747 335.836V306.803C174.747 306.488 174.621 306.236 174.369 306.11L149.24 291.625C148.988 291.498 148.673 291.498 148.485 291.625L123.356 306.11C123.104 306.236 122.978 306.551 122.978 306.802V335.836C122.978 336.088 123.104 336.403 123.356 336.529L130.221 340.497C133.937 342.386 136.267 340.182 136.267 337.977V309.322C136.267 308.944 136.582 308.566 137.022 308.566H140.234C140.612 308.566 140.99 308.881 140.99 309.322V337.977C140.99 342.953 138.282 345.85 133.558 345.85C132.11 345.85 130.977 345.85 127.764 344.275L121.152 340.497C119.514 339.552 118.507 337.788 118.507 335.899V306.866C118.507 304.976 119.514 303.213 121.152 302.268L146.28 287.72C147.855 286.838 149.997 286.838 151.571 287.72L176.699 302.268C178.337 303.213 179.345 304.976 179.345 306.866V335.899C179.345 337.788 178.337 339.552 176.699 340.497L151.571 355.045C150.752 355.423 149.807 355.612 148.926 355.612H148.925ZM156.672 335.647C145.651 335.647 143.383 330.609 143.383 326.326C143.383 325.948 143.698 325.571 144.139 325.571H147.414C147.792 325.571 148.107 325.822 148.107 326.201C148.611 329.538 150.059 331.176 156.735 331.176C162.025 331.176 164.293 329.979 164.293 327.145C164.293 325.507 163.663 324.311 155.413 323.492C148.548 322.799 144.265 321.288 144.265 315.809C144.265 310.707 148.548 307.684 155.727 307.684C163.789 307.684 167.757 310.456 168.261 316.501C168.261 316.691 168.197 316.879 168.072 317.068C167.945 317.194 167.757 317.32 167.568 317.32H164.293C163.978 317.32 163.663 317.068 163.6 316.753C162.844 313.29 160.892 312.156 155.727 312.156C149.933 312.156 149.24 314.171 149.24 315.683C149.24 317.509 150.059 318.076 157.868 319.083C165.615 320.091 169.268 321.54 169.268 326.956C169.205 332.498 164.671 335.647 156.672 335.647Z" fill="#539E43"/>
<path d="M70.9568 242.06C70.9568 240.926 70.3268 239.855 69.3193 239.288L42.6159 223.921C42.1745 223.669 41.671 223.543 41.1675 223.48H40.9152C40.4117 223.48 39.9077 223.669 39.4668 223.921L12.7635 239.288C11.7554 239.855 11.126 240.926 11.126 242.06L11.1892 283.374C11.1892 283.941 11.5042 284.507 12.0077 284.76C12.5117 285.075 13.1411 285.075 13.5825 284.76L29.4533 275.69C30.4609 275.124 31.0908 274.053 31.0908 272.92V253.585C31.0908 252.451 31.7202 251.38 32.7283 250.814L39.4668 246.909C39.9709 246.594 40.5376 246.467 41.1043 246.467C41.671 246.467 42.2377 246.594 42.6791 246.909L49.4176 250.814C50.4257 251.38 51.0551 252.451 51.0551 253.585V272.92C51.0551 274.053 51.6851 275.124 52.6926 275.69L68.5635 284.76C68.8086 284.914 69.0925 284.996 69.3822 284.996C69.6719 284.996 69.9558 284.914 70.201 284.76C70.705 284.507 71.02 283.941 71.02 283.374L70.9568 242.06ZM199.309 185.189C198.806 184.936 198.176 184.936 197.734 185.189C197.231 185.504 196.916 186.007 196.916 186.574V227.511C196.916 227.889 196.727 228.266 196.349 228.519C195.972 228.707 195.593 228.707 195.216 228.519L188.54 224.677C188.051 224.398 187.497 224.252 186.934 224.252C186.371 224.252 185.817 224.398 185.328 224.677L158.624 240.107C157.617 240.674 156.987 241.745 156.987 242.878V273.675C156.987 274.808 157.617 275.88 158.624 276.446L185.328 291.876C185.817 292.155 186.371 292.301 186.934 292.301C187.497 292.301 188.051 292.155 188.54 291.876L215.243 276.446C216.251 275.88 216.881 274.809 216.881 273.675V196.903C216.881 195.706 216.251 194.636 215.243 194.069L199.31 185.189H199.309ZM196.853 263.535C196.853 263.85 196.727 264.102 196.475 264.228L187.343 269.518C187.216 269.58 187.076 269.613 186.934 269.613C186.792 269.613 186.652 269.58 186.524 269.518L177.393 264.228C177.14 264.102 177.014 263.787 177.014 263.535V252.955C177.014 252.64 177.14 252.388 177.393 252.262L186.524 246.971C186.652 246.909 186.792 246.877 186.934 246.877C187.076 246.877 187.216 246.909 187.343 246.971L196.475 252.262C196.727 252.387 196.853 252.703 196.853 252.955V263.535ZM288.174 252.703C289.182 252.136 289.748 251.065 289.748 249.931V242.437C289.748 241.304 289.118 240.233 288.174 239.666L261.659 224.299C261.17 224.021 260.616 223.874 260.053 223.874C259.49 223.874 258.936 224.021 258.447 224.299L231.744 239.729C230.735 240.296 230.106 241.366 230.106 242.5V273.297C230.106 274.431 230.736 275.501 231.744 276.068L258.258 291.183C259.266 291.75 260.463 291.75 261.408 291.183L277.467 282.241C277.971 281.989 278.286 281.422 278.286 280.855C278.286 280.289 277.971 279.722 277.467 279.469L250.638 264.039C250.134 263.725 249.819 263.221 249.819 262.654V253.018C249.819 252.452 250.134 251.885 250.638 251.633L259.014 246.846C259.259 246.692 259.543 246.61 259.832 246.61C260.122 246.61 260.406 246.692 260.651 246.846L269.028 251.633C269.532 251.948 269.846 252.451 269.846 253.018V260.576C269.846 261.143 270.161 261.709 270.665 261.961C270.91 262.116 271.194 262.197 271.484 262.197C271.774 262.197 272.058 262.116 272.303 261.961L288.174 252.703V252.703Z" fill="#333333"/>
<path d="M259.644 251.254C259.737 251.193 259.847 251.16 259.958 251.16C260.07 251.16 260.18 251.193 260.273 251.254L265.375 254.214C265.564 254.341 265.689 254.529 265.689 254.781V260.701C265.689 260.953 265.564 261.142 265.375 261.268L260.273 264.228C260.18 264.29 260.07 264.323 259.958 264.323C259.847 264.323 259.737 264.29 259.644 264.228L254.543 261.268C254.353 261.142 254.228 260.953 254.228 260.701V254.781C254.228 254.529 254.353 254.34 254.543 254.215L259.644 251.254V251.254Z" fill="#539E43"/>
<path d="M142.187 239.729L115.546 224.426C115.285 224.294 115.01 224.188 114.727 224.111L84.875 275.251C85.1223 275.553 85.4209 275.808 85.7572 276.006L112.397 291.311C113.153 291.751 114.035 291.877 114.853 291.625L142.88 240.36C142.691 240.108 142.438 239.918 142.187 239.73V239.729Z" fill="url(#paint0_linear_144_168)"/>
<path fill-rule="evenodd" clip-rule="evenodd" d="M111.516 218.82L111.138 219.009H111.642L111.516 218.82V218.82Z" fill="url(#paint1_linear_144_168)"/>
<path fill-rule="evenodd" clip-rule="evenodd" d="M142.25 275.943C143.006 275.502 143.572 274.746 143.825 273.928L114.601 224.048C113.845 223.922 113.026 223.984 112.334 224.425L85.8826 239.667L114.412 291.688C114.827 291.62 115.23 291.493 115.609 291.31L142.249 275.943L142.25 275.943Z" fill="url(#paint2_linear_144_168)"/>
<path fill-rule="evenodd" clip-rule="evenodd" d="M144.706 275.439L144.517 275.124V275.565L144.706 275.439H144.706Z" fill="url(#paint3_linear_144_168)"/>
<path fill-rule="evenodd" clip-rule="evenodd" d="M142.25 275.943L115.672 291.247C115.297 291.439 114.893 291.566 114.476 291.625L114.98 292.57L144.454 275.503V275.125L143.698 273.865C143.572 274.746 143.006 275.502 142.25 275.943V275.943Z" fill="url(#paint4_linear_144_168)"/>
<path fill-rule="evenodd" clip-rule="evenodd" d="M142.25 275.943L115.672 291.247C115.297 291.439 114.893 291.566 114.476 291.625L114.98 292.57L144.454 275.503V275.125L143.698 273.865C143.572 274.746 143.006 275.502 142.25 275.943V275.943Z" fill="url(#paint5_linear_144_168)"/>
</g>
<defs>
<linearGradient id="paint0_linear_144_168" x1="109.978" y1="261.429" x2="182.763" y2="221.884" gradientUnits="userSpaceOnUse">
<stop offset="0.1376" stop-color="#41873F"/>
<stop offset="0.4032" stop-color="#54A044"/>
<stop offset="0.7136" stop-color="#66B848"/>
<stop offset="0.9081" stop-color="#6CC04A"/>
</linearGradient>
<linearGradient id="paint1_linear_144_168" x1="88.9145" y1="218.845" x2="137.965" y2="218.845" gradientUnits="userSpaceOnUse">
<stop offset="0.09192" stop-color="#6CC04A"/>
<stop offset="0.2864" stop-color="#66B848"/>
<stop offset="0.5968" stop-color="#54A044"/>
<stop offset="0.8624" stop-color="#41873F"/>
</linearGradient>
<linearGradient id="paint2_linear_144_168" x1="83.3395" y1="257.837" x2="144.693" y2="257.837" gradientUnits="userSpaceOnUse">
<stop offset="0.09192" stop-color="#6CC04A"/>
<stop offset="0.2864" stop-color="#66B848"/>
<stop offset="0.5968" stop-color="#54A044"/>
<stop offset="0.8624" stop-color="#41873F"/>
</linearGradient>
<linearGradient id="paint3_linear_144_168" x1="126.15" y1="275.284" x2="144.57" y2="275.284" gradientUnits="userSpaceOnUse">
<stop offset="0.09192" stop-color="#6CC04A"/>
<stop offset="0.2864" stop-color="#66B848"/>
<stop offset="0.5968" stop-color="#54A044"/>
<stop offset="0.8624" stop-color="#41873F"/>
</linearGradient>
<linearGradient id="paint4_linear_144_168" x1="83.34" y1="283.269" x2="144.693" y2="283.269" gradientUnits="userSpaceOnUse">
<stop offset="0.09192" stop-color="#6CC04A"/>
<stop offset="0.2864" stop-color="#66B848"/>
<stop offset="0.5968" stop-color="#54A044"/>
<stop offset="0.8624" stop-color="#41873F"/>
</linearGradient>
<linearGradient id="paint5_linear_144_168" x1="153.631" y1="234.384" x2="138.088" y2="315.83" gradientUnits="userSpaceOnUse">
<stop stop-color="#41873F"/>
<stop offset="0.3288" stop-color="#418B3D"/>
<stop offset="0.6352" stop-color="#419637"/>
<stop offset="0.9319" stop-color="#3FA92D"/>
<stop offset="1" stop-color="#3FAE2A"/>
</linearGradient>
<clipPath id="clip0_144_168">
<rect width="279" height="171.105" fill="white" transform="translate(11 185)"/>
</clipPath>
</defs>
</svg>
