<svg width="300" height="541" viewBox="0 0 300 541" fill="none" xmlns="http://www.w3.org/2000/svg">
<rect width="300" height="541" fill="#ECECEC"/>
<path d="M238.423 209.518C238.423 197.839 223.798 186.769 201.371 179.908C206.55 157.055 204.251 138.867 194.114 133.042C191.657 131.666 188.877 130.974 186.063 131.037V139.044C187.716 139.044 189.045 139.374 190.162 139.984C195.047 142.79 197.17 153.456 195.517 167.185C195.12 170.564 194.474 174.119 193.68 177.748C186.17 175.938 178.548 174.63 170.864 173.833C166.287 167.518 161.293 161.515 155.916 155.865C167.632 144.979 178.629 139.014 186.107 139.014V131C176.22 131 163.284 138.045 150.201 150.26C137.126 138.125 124.182 131.147 114.302 131.147V139.154C121.744 139.154 132.777 145.089 144.493 155.902C139.462 161.191 134.43 167.185 129.648 173.833C121.948 174.622 114.312 175.942 106.795 177.785C106.001 174.346 105.376 170.869 104.922 167.369C103.232 153.632 105.319 142.966 110.174 140.131C111.247 139.484 112.65 139.19 114.302 139.19V131.184C111.291 131.184 108.551 131.83 106.185 133.189C96.0851 139.014 93.8226 157.158 99.0307 179.945C76.6777 186.849 62.1259 197.875 62.1259 209.518C62.1259 221.198 76.7512 232.268 99.1776 239.122C93.9989 261.981 96.2981 280.169 106.435 285.987C108.771 287.354 111.504 288 114.516 288C124.403 288 137.339 280.955 150.421 268.74C163.497 280.882 176.433 287.853 186.32 287.853C189.156 287.913 191.957 287.218 194.437 285.84C204.537 280.023 206.8 261.879 201.592 239.092C223.871 232.231 238.423 221.161 238.423 209.518ZM191.631 185.549C190.235 190.352 188.617 195.088 186.783 199.741C183.779 193.9 180.482 188.214 176.903 182.706C182.008 183.463 186.93 184.396 191.638 185.549H191.631ZM175.176 223.82C172.486 228.518 169.596 233.098 166.516 237.55C155.734 238.5 144.89 238.512 134.107 237.586C127.921 228.751 122.512 219.397 117.939 209.629C122.505 199.837 127.891 190.45 134.04 181.568C144.819 180.616 155.661 180.601 166.442 181.524C169.425 185.799 172.341 190.368 175.14 195.187C177.872 199.888 180.355 204.663 182.618 209.482C180.33 214.359 177.848 219.142 175.176 223.82V223.82ZM186.783 219.149C188.722 223.96 190.382 228.779 191.741 233.451C187.04 234.604 182.074 235.574 176.939 236.323C180.504 230.765 183.789 225.033 186.783 219.149V219.149ZM150.348 257.493C147.006 254.041 143.663 250.199 140.358 245.99C143.59 246.137 146.895 246.247 150.238 246.247C153.617 246.247 156.959 246.173 160.228 245.99C156.996 250.199 153.653 254.041 150.348 257.493ZM123.61 236.323C118.657 235.605 113.74 234.659 108.874 233.487C110.204 228.852 111.856 224.07 113.722 219.296C115.199 222.16 116.749 225.04 118.438 227.919C120.128 230.792 121.847 233.598 123.61 236.323ZM150.164 161.543C153.507 164.996 156.849 168.838 160.154 173.047C156.922 172.9 153.617 172.79 150.274 172.79C146.895 172.79 143.553 172.863 140.284 173.047C143.516 168.838 146.859 164.996 150.164 161.543ZM123.573 182.714C120.009 188.259 116.724 193.979 113.73 199.851C111.843 195.168 110.188 190.395 108.771 185.549C113.472 184.433 118.438 183.463 123.573 182.714ZM91.0533 227.699C78.3305 222.278 70.1033 215.16 70.1033 209.518C70.1033 203.877 78.3305 196.722 91.0533 191.338C94.1385 190.008 97.5175 188.818 101.007 187.709C103.056 194.746 105.752 202.077 109.087 209.592C105.938 216.66 103.276 223.934 101.117 231.365C97.7045 230.308 94.3459 229.085 91.0533 227.699V227.699ZM110.387 279.046C105.502 276.254 103.379 265.574 105.032 251.852C105.429 248.473 106.075 244.91 106.869 241.281C113.906 243.007 121.597 244.337 129.684 245.204C134.262 251.519 139.256 257.521 144.633 263.171C132.917 274.058 121.92 280.023 114.442 280.023C113.031 280.038 111.638 279.705 110.387 279.053V279.046ZM195.627 251.668C197.316 265.397 195.23 276.071 190.375 278.906C189.302 279.552 187.899 279.839 186.246 279.839C178.805 279.839 167.772 273.911 156.056 263.091C161.41 257.464 166.37 251.476 170.901 245.167C178.601 244.378 186.237 243.058 193.754 241.215C194.584 244.844 195.223 248.326 195.627 251.668V251.668ZM209.459 227.699C206.374 229.029 202.995 230.219 199.505 231.328C197.309 223.86 194.609 216.549 191.425 209.445C194.731 201.974 197.383 194.68 199.395 187.672C202.819 188.732 206.189 189.956 209.496 191.338C222.218 196.759 230.446 203.877 230.446 209.518C230.409 215.16 222.182 222.315 209.459 227.699V227.699Z" fill="#61D9FC"/>
<path d="M150.238 225.944C154.594 225.944 158.772 224.214 161.852 221.134C164.933 218.053 166.663 213.875 166.663 209.519C166.663 205.163 164.933 200.985 161.852 197.905C158.772 194.825 154.594 193.094 150.238 193.094C145.882 193.094 141.704 194.825 138.624 197.905C135.543 200.985 133.813 205.163 133.813 209.519C133.813 213.875 135.543 218.053 138.624 221.134C141.704 224.214 145.882 225.944 150.238 225.944V225.944Z" fill="#61D9FC"/>
<path d="M104.286 359.797C105.666 359.797 106.881 359.633 107.932 359.305C108.999 358.96 109.886 358.484 110.592 357.876C111.315 357.252 111.856 356.513 112.218 355.659C112.579 354.805 112.76 353.861 112.76 352.827C112.76 350.725 112.07 349.14 110.691 348.073C109.311 347.005 107.242 346.472 104.483 346.472H99.2615V359.797H104.286ZM120.592 378H116.356C115.485 378 114.845 377.663 114.435 376.99L105.272 364.379C104.992 363.985 104.689 363.705 104.36 363.541C104.048 363.361 103.556 363.27 102.882 363.27H99.2615V378H94.5076V342.703H104.483C106.717 342.703 108.646 342.933 110.272 343.393C111.897 343.836 113.236 344.485 114.287 345.339C115.354 346.192 116.142 347.227 116.651 348.442C117.16 349.641 117.415 350.987 117.415 352.482C117.415 353.73 117.218 354.896 116.824 355.979C116.43 357.063 115.855 358.04 115.1 358.911C114.361 359.764 113.449 360.495 112.365 361.103C111.298 361.71 110.083 362.17 108.72 362.482C109.328 362.827 109.853 363.328 110.296 363.985L120.592 378ZM139.471 362.802C139.471 361.784 139.324 360.856 139.028 360.019C138.749 359.165 138.33 358.434 137.772 357.827C137.23 357.203 136.565 356.727 135.777 356.398C134.988 356.053 134.093 355.881 133.092 355.881C130.99 355.881 129.323 356.497 128.092 357.728C126.876 358.943 126.121 360.635 125.825 362.802H139.471ZM143.018 374.502C142.476 375.159 141.828 375.734 141.072 376.227C140.317 376.703 139.504 377.097 138.634 377.409C137.78 377.721 136.893 377.951 135.974 378.099C135.054 378.263 134.143 378.345 133.24 378.345C131.515 378.345 129.923 378.057 128.461 377.483C127.016 376.892 125.76 376.038 124.692 374.921C123.641 373.788 122.82 372.392 122.229 370.734C121.638 369.075 121.343 367.17 121.343 365.019C121.343 363.279 121.605 361.653 122.131 360.142C122.673 358.631 123.444 357.326 124.446 356.226C125.448 355.109 126.671 354.239 128.116 353.615C129.561 352.974 131.187 352.654 132.993 352.654C134.488 352.654 135.867 352.909 137.131 353.418C138.412 353.91 139.512 354.633 140.432 355.585C141.368 356.521 142.099 357.687 142.624 359.083C143.15 360.462 143.412 362.039 143.412 363.812C143.412 364.502 143.339 364.962 143.191 365.192C143.043 365.421 142.764 365.536 142.353 365.536H125.678C125.727 367.113 125.94 368.484 126.318 369.65C126.712 370.816 127.254 371.793 127.944 372.581C128.633 373.353 129.455 373.936 130.407 374.33C131.359 374.708 132.427 374.896 133.609 374.896C134.709 374.896 135.653 374.773 136.442 374.527C137.246 374.264 137.936 373.985 138.511 373.689C139.085 373.394 139.562 373.123 139.939 372.877C140.333 372.614 140.67 372.483 140.949 372.483C141.311 372.483 141.59 372.622 141.787 372.901L143.018 374.502ZM162.321 366.768C160.301 366.834 158.577 366.998 157.148 367.261C155.736 367.507 154.578 367.835 153.675 368.246C152.788 368.656 152.14 369.141 151.729 369.699C151.335 370.257 151.138 370.881 151.138 371.571C151.138 372.228 151.245 372.795 151.458 373.271C151.672 373.747 151.959 374.141 152.32 374.453C152.698 374.749 153.133 374.97 153.626 375.118C154.135 375.249 154.677 375.315 155.251 375.315C156.023 375.315 156.729 375.241 157.37 375.093C158.01 374.929 158.609 374.699 159.168 374.404C159.743 374.108 160.284 373.755 160.793 373.345C161.319 372.934 161.828 372.466 162.321 371.941V366.768ZM148.157 356.571C149.537 355.24 151.023 354.247 152.616 353.59C154.209 352.933 155.974 352.605 157.912 352.605C159.307 352.605 160.547 352.835 161.631 353.295C162.715 353.754 163.626 354.395 164.365 355.216C165.104 356.037 165.662 357.03 166.04 358.196C166.418 359.362 166.607 360.643 166.607 362.039V378H164.661C164.234 378 163.905 377.934 163.675 377.803C163.445 377.655 163.265 377.376 163.133 376.965L162.641 374.601C161.984 375.208 161.344 375.75 160.72 376.227C160.096 376.686 159.439 377.08 158.749 377.409C158.059 377.721 157.32 377.959 156.532 378.123C155.76 378.304 154.898 378.394 153.946 378.394C152.977 378.394 152.066 378.263 151.212 378C150.358 377.721 149.611 377.31 148.97 376.768C148.346 376.227 147.845 375.545 147.468 374.724C147.107 373.887 146.926 372.901 146.926 371.768C146.926 370.783 147.197 369.839 147.739 368.936C148.281 368.016 149.159 367.203 150.374 366.497C151.589 365.791 153.174 365.216 155.128 364.773C157.082 364.313 159.48 364.05 162.321 363.985V362.039C162.321 360.101 161.902 358.64 161.064 357.654C160.227 356.653 159.004 356.152 157.394 356.152C156.311 356.152 155.399 356.291 154.66 356.571C153.938 356.833 153.305 357.137 152.764 357.482C152.238 357.81 151.778 358.114 151.384 358.393C151.007 358.656 150.629 358.787 150.251 358.787C149.956 358.787 149.701 358.713 149.488 358.566C149.274 358.401 149.093 358.204 148.946 357.975L148.157 356.571ZM190.65 357.482C190.519 357.663 190.388 357.802 190.256 357.901C190.125 357.999 189.944 358.048 189.714 358.048C189.468 358.048 189.197 357.95 188.902 357.753C188.606 357.539 188.237 357.309 187.793 357.063C187.366 356.817 186.833 356.595 186.192 356.398C185.568 356.185 184.796 356.078 183.877 356.078C182.645 356.078 181.561 356.3 180.625 356.743C179.689 357.17 178.901 357.794 178.261 358.615C177.637 359.436 177.161 360.429 176.832 361.595C176.52 362.761 176.364 364.067 176.364 365.512C176.364 367.023 176.537 368.369 176.881 369.551C177.226 370.717 177.711 371.703 178.335 372.507C178.975 373.295 179.739 373.903 180.625 374.33C181.529 374.74 182.538 374.946 183.655 374.946C184.722 374.946 185.601 374.823 186.291 374.576C186.98 374.313 187.547 374.026 187.99 373.714C188.45 373.402 188.828 373.123 189.123 372.877C189.435 372.614 189.739 372.483 190.035 372.483C190.396 372.483 190.675 372.622 190.872 372.901L192.104 374.502C191.562 375.176 190.946 375.75 190.256 376.227C189.567 376.703 188.819 377.105 188.015 377.433C187.227 377.745 186.397 377.975 185.527 378.123C184.657 378.271 183.77 378.345 182.867 378.345C181.307 378.345 179.854 378.057 178.507 377.483C177.177 376.908 176.019 376.079 175.034 374.995C174.049 373.895 173.277 372.548 172.719 370.955C172.16 369.363 171.881 367.548 171.881 365.512C171.881 363.656 172.136 361.94 172.645 360.364C173.17 358.787 173.926 357.433 174.911 356.3C175.913 355.15 177.136 354.255 178.581 353.615C180.042 352.974 181.717 352.654 183.606 352.654C185.363 352.654 186.906 352.941 188.237 353.516C189.583 354.075 190.774 354.871 191.808 355.905L190.65 357.482ZM204.471 378.394C202.5 378.394 200.981 377.844 199.914 376.744C198.863 375.644 198.337 374.059 198.337 371.99V356.718H195.332C195.07 356.718 194.848 356.644 194.667 356.497C194.487 356.332 194.396 356.086 194.396 355.758V354.009L198.485 353.492L199.495 345.782C199.544 345.536 199.651 345.339 199.815 345.191C199.996 345.027 200.226 344.944 200.505 344.944H202.722V353.541H209.939V356.718H202.722V371.694C202.722 372.745 202.976 373.525 203.485 374.034C203.994 374.543 204.651 374.798 205.456 374.798C205.916 374.798 206.31 374.74 206.638 374.625C206.983 374.494 207.279 374.355 207.525 374.207C207.771 374.059 207.977 373.928 208.141 373.813C208.321 373.681 208.477 373.616 208.609 373.616C208.839 373.616 209.044 373.755 209.225 374.034L210.505 376.128C209.75 376.834 208.839 377.392 207.771 377.803C206.704 378.197 205.604 378.394 204.471 378.394Z" fill="black"/>
</svg>
